<svg preserveAspectRatio="none" width="100%" height="100%" overflow="visible" style="display: block;" viewBox="0 0 32 32" fill="none" xmlns="http://www.w3.org/2000/svg">
<g id="Natural &#226;&#128;&#148; Payments for AI agents (7) 1">
<rect width="32" height="32" rx="8" fill="var(--fill-0, #FAF9F6)"/>
<g id="Union">
<path d="M22.8271 20.165C23.011 20.1652 23.16 20.3142 23.1602 20.498V22.832C23.16 23.0159 23.011 23.1649 22.8271 23.165H20.4932C20.3093 23.1649 20.1603 23.0159 20.1602 22.832V20.498C20.1603 20.3142 20.3093 20.1652 20.4932 20.165H22.8271Z" fill="var(--fill-0, #4A4D4E)"/>
<path d="M11.499 14.5C11.6829 14.5002 11.8319 14.6492 11.832 14.833V17.167C11.8319 17.3508 11.6829 17.4998 11.499 17.5H9.16504C8.9812 17.4998 8.83221 17.3508 8.83203 17.167V14.833C8.83221 14.6492 8.9812 14.5002 9.16504 14.5H11.499Z" fill="var(--fill-0, #4A4D4E)"/>
<path d="M17.167 14.5C17.3508 14.5002 17.4998 14.6492 17.5 14.833V17.167C17.4998 17.3508 17.3508 17.4998 17.167 17.5H14.833C14.6492 17.4998 14.5002 17.3508 14.5 17.167V14.833C14.5002 14.6492 14.6492 14.5002 14.833 14.5H17.167Z" fill="var(--fill-0, #4A4D4E)"/>
<path d="M22.8271 14.5C23.011 14.5002 23.16 14.6492 23.1602 14.833V17.167C23.16 17.3508 23.011 17.4998 22.8271 17.5H20.4932C20.3093 17.4998 20.1603 17.3508 20.1602 17.167V14.833C20.1603 14.6492 20.3093 14.5002 20.4932 14.5H22.8271Z" fill="var(--fill-0, #4A4D4E)"/>
<path d="M11.499 8.83984C11.6829 8.84002 11.8319 8.98901 11.832 9.17285V11.5068C11.8319 11.6907 11.6829 11.8397 11.499 11.8398H9.16504C8.9812 11.8397 8.83221 11.6907 8.83203 11.5068V9.17285C8.83221 8.98901 8.9812 8.84002 9.16504 8.83984H11.499Z" fill="var(--fill-0, #4A4D4E)"/>
</g>
</g>
</svg>
