<svg preserveAspectRatio="none" width="100%" height="100%" overflow="visible" style="display: block;" viewBox="0 0 32 32" fill="none" xmlns="http://www.w3.org/2000/svg">
<g id="Natural &#226;&#128;&#148; Payments for AI agents (6) 1">
<rect width="32" height="32" rx="8" fill="var(--fill-0, #FAF9F6)"/>
<g id="Union">
<path d="M17.167 20.165C17.3508 20.1652 17.4998 20.3142 17.5 20.498V22.832C17.4998 23.0159 17.3508 23.1649 17.167 23.165H14.833C14.6492 23.1649 14.5002 23.0159 14.5 22.832V20.498C14.5002 20.3142 14.6492 20.1652 14.833 20.165H17.167Z" fill="var(--fill-0, #4A4D4E)"/>
<path d="M17.167 14.5C17.3508 14.5002 17.4998 14.6492 17.5 14.833V17.167C17.4998 17.3508 17.3508 17.4998 17.167 17.5H14.833C14.6492 17.4998 14.5002 17.3508 14.5 17.167V14.833C14.5002 14.6492 14.6492 14.5002 14.833 14.5H17.167Z" fill="var(--fill-0, #4A4D4E)"/>
<path d="M11.499 8.83984C11.6829 8.84002 11.8319 8.98901 11.832 9.17285V11.5068C11.8319 11.6907 11.6829 11.8397 11.499 11.8398H9.16504C8.9812 11.8397 8.83221 11.6907 8.83203 11.5068V9.17285C8.83221 8.98901 8.9812 8.84002 9.16504 8.83984H11.499Z" fill="var(--fill-0, #4A4D4E)"/>
<path d="M22.8271 8.83301C23.011 8.83318 23.16 8.98218 23.1602 9.16602V11.5C23.16 11.6838 23.011 11.8328 22.8271 11.833H20.4932C20.3093 11.8328 20.1603 11.6838 20.1602 11.5V9.16602C20.1603 8.98218 20.3093 8.83318 20.4932 8.83301H22.8271Z" fill="var(--fill-0, #4A4D4E)"/>
</g>
</g>
</svg>
