<svg preserveAspectRatio="none" width="100%" height="100%" overflow="visible" style="display: block;" viewBox="0 0 32 32" fill="none" xmlns="http://www.w3.org/2000/svg">
<g id="Natural &#226;&#128;&#148; Payments for AI agents (3) 1">
<rect width="32" height="32" rx="8" fill="var(--fill-0, #FAF9F6)"/>
<g id="Union">
<path d="M17.167 20.165C17.3508 20.1652 17.4998 20.3142 17.5 20.498V22.832C17.4998 23.0159 17.3508 23.1649 17.167 23.165H14.833C14.6492 23.1649 14.5002 23.0159 14.5 22.832V20.498C14.5002 20.3142 14.6492 20.1652 14.833 20.165H17.167Z" fill="var(--fill-0, #4A4D4E)"/>
<path d="M11.499 14.5C11.6829 14.5002 11.8319 14.6492 11.832 14.833V17.167C11.8319 17.3508 11.6829 17.4998 11.499 17.5H9.16504C8.9812 17.4998 8.83221 17.3508 8.83203 17.167V14.833C8.83221 14.6492 8.9812 14.5002 9.16504 14.5H11.499Z" fill="var(--fill-0, #4A4D4E)"/>
<path d="M17.167 14.5C17.3508 14.5002 17.4998 14.6492 17.5 14.833V17.167C17.4998 17.3508 17.3508 17.4998 17.167 17.5H14.833C14.6492 17.4998 14.5002 17.3508 14.5 17.167V14.833C14.5002 14.6492 14.6492 14.5002 14.833 14.5H17.167Z" fill="var(--fill-0, #4A4D4E)"/>
<path d="M22.835 14.5C23.0188 14.5002 23.1678 14.6492 23.168 14.833V17.167C23.1678 17.3508 23.0188 17.4998 22.835 17.5H20.501C20.3171 17.4998 20.1681 17.3508 20.168 17.167V14.833C20.1681 14.6492 20.3171 14.5002 20.501 14.5H22.835Z" fill="var(--fill-0, #4A4D4E)"/>
<path d="M17.167 8.83301C17.3508 8.83318 17.4998 8.98218 17.5 9.16602V11.5C17.4998 11.6838 17.3508 11.8328 17.167 11.833H14.833C14.6492 11.8328 14.5002 11.6838 14.5 11.5V9.16602C14.5002 8.98218 14.6492 8.83318 14.833 8.83301H17.167Z" fill="var(--fill-0, #4A4D4E)"/>
</g>
</g>
</svg>
