<svg preserveAspectRatio="none" width="100%" height="100%" overflow="visible" style="display: block;" viewBox="0 0 12 12" fill="none" xmlns="http://www.w3.org/2000/svg">
<path id="Vector" d="M0 1.5C0 1.10218 0.158035 0.720644 0.43934 0.43934C0.720644 0.158035 1.10218 0 1.5 0H3.5C3.89782 0 4.27936 0.158035 4.56066 0.43934C4.84196 0.720644 5 1.10218 5 1.5V3.5C5 3.89782 4.84196 4.27936 4.56066 4.56066C4.27936 4.84196 3.89782 5 3.5 5H1.5C1.10218 5 0.720644 4.84196 0.43934 4.56066C0.158035 4.27936 0 3.89782 0 3.5V1.5ZM0 8.5C0 8.10218 0.158035 7.72064 0.43934 7.43934C0.720644 7.15804 1.10218 7 1.5 7H3.5C3.89782 7 4.27936 7.15804 4.56066 7.43934C4.84196 7.72064 5 8.10218 5 8.5V10.5C5 10.8978 4.84196 11.2794 4.56066 11.5607C4.27936 11.842 3.89782 12 3.5 12H1.5C1.10218 12 0.720644 11.842 0.43934 11.5607C0.158035 11.2794 0 10.8978 0 10.5V8.5ZM8.5 0C8.10218 0 7.72064 0.158035 7.43934 0.43934C7.15804 0.720644 7 1.10218 7 1.5V3.5C7 3.89782 7.15804 4.27936 7.43934 4.56066C7.72064 4.84196 8.10218 5 8.5 5H10.5C10.8978 5 11.2794 4.84196 11.5607 4.56066C11.842 4.27936 12 3.89782 12 3.5V1.5C12 1.10218 11.842 0.720644 11.5607 0.43934C11.2794 0.158035 10.8978 0 10.5 0H8.5ZM9.5 7C9.69891 7 9.88968 7.07902 10.0303 7.21967C10.171 7.36032 10.25 7.55109 10.25 7.75V8.75H11.25C11.4489 8.75 11.6397 8.82902 11.7803 8.96967C11.921 9.11032 12 9.30109 12 9.5C12 9.69891 11.921 9.88968 11.7803 10.0303C11.6397 10.171 11.4489 10.25 11.25 10.25H10.25V11.25C10.25 11.4489 10.171 11.6397 10.0303 11.7803C9.88968 11.921 9.69891 12 9.5 12C9.30109 12 9.11032 11.921 8.96967 11.7803C8.82902 11.6397 8.75 11.4489 8.75 11.25V10.25H7.75C7.55109 10.25 7.36032 10.171 7.21967 10.0303C7.07902 9.88968 7 9.69891 7 9.5C7 9.30109 7.07902 9.11032 7.21967 8.96967C7.36032 8.82902 7.55109 8.75 7.75 8.75H8.75V7.75C8.75 7.55109 8.82902 7.36032 8.96967 7.21967C9.11032 7.07902 9.30109 7 9.5 7Z" fill="var(--fill-0, #6D7378)"/>
</svg>
