<svg preserveAspectRatio="none" width="100%" height="100%" overflow="visible" style="display: block;" viewBox="0 0 392.6 412.1" fill="none" xmlns="http://www.w3.org/2000/svg">
<g id="Container" filter="url(#filter0_dd_0_41)">
<rect x="66.3" y="19.5" width="260" height="260" rx="70.2" fill="url(#paint0_linear_0_41)"/>
<rect x="68.25" y="21.45" width="256.1" height="256.1" rx="68.25" stroke="url(#paint1_linear_0_41)" stroke-width="3.9"/>
<g id="Union">
<path d="M198.563 101.402C220.923 101.402 239.667 116.87 244.688 137.689C258.447 140.211 268.875 152.263 268.875 166.752C268.875 182.999 255.762 196.181 239.542 196.297V196.302H198.716C198.665 196.302 198.614 196.303 198.563 196.303C198.512 196.303 198.46 196.302 198.409 196.302H160.171V196.27C159.671 196.292 159.168 196.306 158.662 196.306C139.961 196.306 124.8 181.146 124.8 162.444C124.8 144.78 138.325 130.277 155.584 128.722C163.157 112.581 179.554 101.402 198.563 101.402Z" fill="url(#paint2_linear_0_41)"/>
<path d="M198.563 101.402L198.563 98.8023H198.563V101.402ZM244.688 137.689L242.16 138.299L242.556 139.942L244.219 140.247L244.688 137.689ZM268.875 166.752L271.475 166.752V166.752H268.875ZM239.542 196.297L239.523 193.697L236.942 193.715V196.297H239.542ZM239.542 196.302V198.902H242.142V196.302H239.542ZM198.716 196.302V193.702L198.708 193.702L198.716 196.302ZM198.563 196.303V198.903H198.563L198.563 196.303ZM198.409 196.302L198.417 193.702H198.409V196.302ZM160.171 196.302H157.571V198.902H160.171V196.302ZM160.171 196.27H162.771V193.554L160.057 193.673L160.171 196.27ZM158.662 196.306V198.906H158.662L158.662 196.306ZM124.8 162.444H122.2V162.444L124.8 162.444ZM155.584 128.722L155.817 131.311L157.304 131.177L157.938 129.826L155.584 128.722ZM198.563 101.402L198.563 104.002C219.694 104.002 237.415 118.62 242.16 138.299L244.688 137.689L247.215 137.08C241.92 115.12 222.152 98.8024 198.563 98.8023L198.563 101.402ZM244.688 137.689L244.219 140.247C256.766 142.546 266.275 153.541 266.275 166.752H268.875H271.475C271.475 150.986 260.128 137.876 245.156 135.132L244.688 137.689ZM268.875 166.752L266.275 166.752C266.275 181.569 254.316 193.591 239.523 193.697L239.542 196.297L239.561 198.897C257.208 198.771 271.475 184.429 271.475 166.752L268.875 166.752ZM239.542 196.297H236.942V196.302H239.542H242.142V196.297H239.542ZM239.542 196.302V193.702H198.716V196.302V198.902H239.542V196.302ZM198.716 196.302L198.708 193.702C198.578 193.702 198.642 193.703 198.563 193.703L198.563 196.303L198.563 198.903C198.601 198.903 198.636 198.902 198.662 198.902C198.691 198.902 198.708 198.902 198.724 198.902L198.716 196.302ZM198.563 196.303V193.703C198.483 193.703 198.547 193.702 198.417 193.702L198.409 196.302L198.401 198.902C198.417 198.902 198.434 198.902 198.463 198.902C198.489 198.902 198.524 198.903 198.563 198.903V196.303ZM198.409 196.302V193.702H160.171V196.302V198.902H198.409V196.302ZM160.171 196.302H162.771V196.27H160.171H157.571V196.302H160.171ZM160.171 196.27L160.057 193.673C159.587 193.694 159.123 193.706 158.662 193.706L158.662 196.306L158.662 198.906C159.213 198.906 159.754 198.891 160.285 198.868L160.171 196.27ZM158.662 196.306V193.706C141.397 193.706 127.4 179.71 127.4 162.444L124.8 162.444L122.2 162.444C122.2 182.582 138.525 198.906 158.662 198.906V196.306ZM124.8 162.444H127.4C127.4 146.138 139.886 132.747 155.817 131.311L155.584 128.722L155.351 126.132C136.764 127.807 122.2 143.422 122.2 162.444H124.8ZM155.584 128.722L157.938 129.826C165.099 114.563 180.599 104.002 198.563 104.002V101.402V98.8023C178.508 98.8023 161.216 110.598 153.23 127.617L155.584 128.722Z" fill="var(--stroke-0, white)"/>
</g>
</g>
<defs>
<filter id="filter0_dd_0_41" x="0" y="0" width="392.6" height="412.1" filterUnits="userSpaceOnUse" color-interpolation-filters="sRGB">
<feFlood flood-opacity="0" result="BackgroundImageFix"/>
<feColorMatrix in="SourceAlpha" type="matrix" values="0 0 0 0 0 0 0 0 0 0 0 0 0 0 0 0 0 0 127 0" result="hardAlpha"/>
<feOffset dy="16.9"/>
<feGaussianBlur stdDeviation="18.2"/>
<feColorMatrix type="matrix" values="0 0 0 0 0 0 0 0 0 0.0156863 0 0 0 0 0.121569 0 0 0 0.1 0"/>
<feBlend mode="normal" in2="BackgroundImageFix" result="effect1_dropShadow_0_41"/>
<feColorMatrix in="SourceAlpha" type="matrix" values="0 0 0 0 0 0 0 0 0 0 0 0 0 0 0 0 0 0 127 0" result="hardAlpha"/>
<feOffset dy="66.3"/>
<feGaussianBlur stdDeviation="33.15"/>
<feColorMatrix type="matrix" values="0 0 0 0 0 0 0 0 0 0.0156863 0 0 0 0 0.121569 0 0 0 0.09 0"/>
<feBlend mode="normal" in2="effect1_dropShadow_0_41" result="effect2_dropShadow_0_41"/>
<feBlend mode="normal" in="SourceGraphic" in2="effect2_dropShadow_0_41" result="shape"/>
</filter>
<linearGradient id="paint0_linear_0_41" x1="196.3" y1="19.5" x2="196.3" y2="279.5" gradientUnits="userSpaceOnUse">
<stop stop-color="#0DB3FB"/>
<stop offset="1" stop-color="#0507CC"/>
</linearGradient>
<linearGradient id="paint1_linear_0_41" x1="196.3" y1="19.5" x2="196.3" y2="279.5" gradientUnits="userSpaceOnUse">
<stop stop-color="#79D9FF"/>
<stop offset="1" stop-color="#120BD6"/>
</linearGradient>
<linearGradient id="paint2_linear_0_41" x1="196.837" y1="101.402" x2="196.837" y2="196.306" gradientUnits="userSpaceOnUse">
<stop stop-color="white" stop-opacity="0.6"/>
<stop offset="1" stop-color="white"/>
</linearGradient>
</defs>
</svg>
