<svg preserveAspectRatio="none" width="100%" height="100%" overflow="visible" style="display: block;" viewBox="0 0 360.607 240.273" fill="none" xmlns="http://www.w3.org/2000/svg">
<foreignObject x="0" y="0" width="360.607" height="240.273"><div xmlns="http://www.w3.org/1999/xhtml" style="backdrop-filter:blur(6.31px);clip-path:url(#bgblur_0_0_48_clip_path);height:100%;width:100%"></div></foreignObject><g id="Vector 1544" filter="url(#filter0_di_0_48)" data-figma-bg-blur-radius="12.6252">
<path d="M50.5008 151.108V31.563C164.127 130.039 270.916 72.5948 310.106 31.563V151.108C310.106 162.003 301.274 170.835 290.379 170.835H70.2276C59.3328 170.835 50.5008 162.003 50.5008 151.108Z" fill="var(--fill-0, white)" fill-opacity="0.4" shape-rendering="crispEdges"/>
<path d="M51.2898 33.2847C107.812 81.7016 162.655 91.8203 208.34 84.6577C253.299 77.6086 289.323 53.8322 309.317 33.5073V151.108C309.317 161.567 300.839 170.045 290.38 170.045H70.2273C59.7685 170.045 51.2899 161.567 51.2898 151.108V33.2847Z" stroke="var(--stroke-0, white)" stroke-opacity="0.4" stroke-width="1.57815" shape-rendering="crispEdges"/>
</g>
<defs>
<filter id="filter0_di_0_48" x="0" y="0" width="360.607" height="240.273" filterUnits="userSpaceOnUse" color-interpolation-filters="sRGB">
<feFlood flood-opacity="0" result="BackgroundImageFix"/>
<feColorMatrix in="SourceAlpha" type="matrix" values="0 0 0 0 0 0 0 0 0 0 0 0 0 0 0 0 0 0 127 0" result="hardAlpha"/>
<feOffset dy="18.9378"/>
<feGaussianBlur stdDeviation="25.2504"/>
<feComposite in2="hardAlpha" operator="out"/>
<feColorMatrix type="matrix" values="0 0 0 0 0 0 0 0 0 0 0 0 0 0 0 0 0 0 0.05 0"/>
<feBlend mode="normal" in2="BackgroundImageFix" result="effect1_dropShadow_0_48"/>
<feBlend mode="normal" in="SourceGraphic" in2="effect1_dropShadow_0_48" result="shape"/>
<feColorMatrix in="SourceAlpha" type="matrix" values="0 0 0 0 0 0 0 0 0 0 0 0 0 0 0 0 0 0 127 0" result="hardAlpha"/>
<feOffset dy="3.1563"/>
<feGaussianBlur stdDeviation="1.57815"/>
<feComposite in2="hardAlpha" operator="arithmetic" k2="-1" k3="1"/>
<feColorMatrix type="matrix" values="0 0 0 0 1 0 0 0 0 1 0 0 0 0 1 0 0 0 0.25 0"/>
<feBlend mode="normal" in2="shape" result="effect2_innerShadow_0_48"/>
</filter>
<clipPath id="bgblur_0_0_48_clip_path" transform="translate(0 0)"><path d="M50.5008 151.108V31.563C164.127 130.039 270.916 72.5948 310.106 31.563V151.108C310.106 162.003 301.274 170.835 290.379 170.835H70.2276C59.3328 170.835 50.5008 162.003 50.5008 151.108Z"/>
</clipPath></defs>
</svg>
