<svg preserveAspectRatio="none" width="100%" height="100%" overflow="visible" style="display: block;" viewBox="0 0 12.0008 9.99926" fill="none" xmlns="http://www.w3.org/2000/svg">
<path id="Vector" d="M0.00100005 3.34188C0.00782141 2.64679 0.229106 1.97075 0.634615 1.40616C1.04012 0.84157 1.61008 0.415961 2.26659 0.187496C2.9231 -0.04097 3.63414 -0.0611471 4.30255 0.129721C4.97096 0.32059 5.56413 0.713193 6.001 1.25388C6.44714 0.701897 7.05594 0.304607 7.74084 0.118497C8.42574 -0.0676124 9.15188 -0.0330692 9.81602 0.217216C10.4802 0.4675 11.0485 0.920787 11.4402 1.51263C11.8319 2.10447 12.0271 2.80474 11.998 3.51388C11.935 5.64788 10.38 7.27388 9.043 8.29788C8.21184 8.92973 7.31459 9.46955 6.367 9.90788C6.347 9.91788 6.329 9.92488 6.317 9.92988L6.303 9.93588L6.299 9.93788H6.297C6.20355 9.97821 6.10288 9.99909 6.0011 9.99926C5.89933 9.99943 5.79858 9.97889 5.705 9.93888H5.703L5.699 9.93588L5.684 9.92988C5.60585 9.89601 5.5285 9.86033 5.452 9.82288C4.55549 9.39282 3.70596 8.87104 2.917 8.26588C1.565 7.21988 0 5.55788 0 3.37988L0.00100005 3.34188Z" fill="var(--fill-0, #6D7378)"/>
</svg>
