<svg preserveAspectRatio="none" width="100%" height="100%" overflow="visible" style="display: block;" viewBox="0 0 12 12" fill="none" xmlns="http://www.w3.org/2000/svg">
<path id="Vector" fill-rule="evenodd" clip-rule="evenodd" d="M0 2C0 1.46957 0.210714 0.960859 0.585786 0.585786C0.960859 0.210714 1.46957 0 2 0H10C10.5304 0 11.0391 0.210714 11.4142 0.585786C11.7893 0.960859 12 1.46957 12 2V10C12 10.5304 11.7893 11.0391 11.4142 11.4142C11.0391 11.7893 10.5304 12 10 12H2C1.46957 12 0.960859 11.7893 0.585786 11.4142C0.210714 11.0391 0 10.5304 0 10V2ZM10.5 7.707C10.5 7.57465 10.4475 7.44771 10.354 7.354L9.354 6.354C9.30755 6.30744 9.25238 6.27049 9.19163 6.24529C9.13089 6.22008 9.06577 6.20711 9 6.20711C8.93423 6.20711 8.86911 6.22008 8.80837 6.24529C8.74762 6.27049 8.69245 6.30744 8.646 6.354L7.354 7.646C7.30755 7.69256 7.25238 7.72951 7.19163 7.75471C7.13089 7.77992 7.06577 7.79289 7 7.79289C6.93423 7.79289 6.86911 7.77992 6.80837 7.75471C6.74762 7.72951 6.69245 7.69256 6.646 7.646L4.354 5.354C4.30755 5.30744 4.25238 5.27049 4.19163 5.24529C4.13089 5.22008 4.06577 5.20711 4 5.20711C3.93423 5.20711 3.86911 5.22008 3.80837 5.24529C3.74762 5.27049 3.69245 5.30744 3.646 5.354L1.646 7.354C1.55253 7.44771 1.50003 7.57465 1.5 7.707V10C1.5 10.1326 1.55268 10.2598 1.64645 10.3536C1.74021 10.4473 1.86739 10.5 2 10.5H10C10.1326 10.5 10.2598 10.4473 10.3536 10.3536C10.4473 10.2598 10.5 10.1326 10.5 10V7.707ZM10 3C10 3.26522 9.89464 3.51957 9.70711 3.70711C9.51957 3.89464 9.26522 4 9 4C8.73478 4 8.48043 3.89464 8.29289 3.70711C8.10536 3.51957 8 3.26522 8 3C8 2.73478 8.10536 2.48043 8.29289 2.29289C8.48043 2.10536 8.73478 2 9 2C9.26522 2 9.51957 2.10536 9.70711 2.29289C9.89464 2.48043 10 2.73478 10 3Z" fill="var(--fill-0, #6D7378)"/>
</svg>
