<svg preserveAspectRatio="none" width="100%" height="100%" overflow="visible" style="display: block;" viewBox="0 0 19.7 19.7" fill="none" xmlns="http://www.w3.org/2000/svg">
<g id="Icon">
<path id="Vector" opacity="0.95" d="M7.42825 3.5293H4.7195C4.06217 3.5293 3.5293 4.06217 3.5293 4.7195V7.42825C3.5293 8.08558 4.06217 8.61845 4.7195 8.61845H7.42825C8.08558 8.61845 8.61845 8.08558 8.61845 7.42825V4.7195C8.61845 4.06217 8.08558 3.5293 7.42825 3.5293Z" fill="var(--fill-0, #2E3242)"/>
<path id="Vector_2" opacity="0.78" d="M14.981 3.5293H12.2722C11.6149 3.5293 11.082 4.06217 11.082 4.7195V7.42825C11.082 8.08558 11.6149 8.61845 12.2722 8.61845H14.981C15.6383 8.61845 16.1712 8.08558 16.1712 7.42825V4.7195C16.1712 4.06217 15.6383 3.5293 14.981 3.5293Z" fill="var(--fill-0, #2E3242)"/>
<path id="Vector_3" opacity="0.78" d="M7.42825 11.082H4.7195C4.06217 11.082 3.5293 11.6149 3.5293 12.2722V14.981C3.5293 15.6383 4.06217 16.1712 4.7195 16.1712H7.42825C8.08558 16.1712 8.61845 15.6383 8.61845 14.981V12.2722C8.61845 11.6149 8.08558 11.082 7.42825 11.082Z" fill="var(--fill-0, #2E3242)"/>
<path id="Vector_4" opacity="0.95" d="M14.981 11.082H12.2722C11.6149 11.082 11.082 11.6149 11.082 12.2722V14.981C11.082 15.6383 11.6149 16.1712 12.2722 16.1712H14.981C15.6383 16.1712 16.1712 15.6383 16.1712 14.981V12.2722C16.1712 11.6149 15.6383 11.082 14.981 11.082Z" fill="var(--fill-0, #2E3242)"/>
</g>
</svg>
