<svg preserveAspectRatio="none" width="100%" height="100%" overflow="visible" style="display: block;" viewBox="0 0 13.406 8.50485" fill="none" xmlns="http://www.w3.org/2000/svg">
<path id="Vector" fill-rule="evenodd" clip-rule="evenodd" d="M8.81722 0.553146C8.8694 0.361305 8.99562 0.198032 9.16813 0.0992116C9.34064 0.000391617 9.54534 -0.025889 9.73722 0.0261456L12.8532 0.875146C13.0441 0.927166 13.2068 1.05252 13.3056 1.22391C13.4045 1.3953 13.4317 1.59882 13.3812 1.79015L12.5582 4.91115C12.5034 5.09879 12.3776 5.25763 12.2074 5.35383C12.0372 5.45003 11.8362 5.476 11.6472 5.42621C11.4582 5.37641 11.2961 5.25478 11.1954 5.08722C11.0947 4.91966 11.0634 4.71942 11.1082 4.52915L11.4452 3.24815C10.1425 4.14278 8.93332 5.16664 7.83622 6.30415C7.76708 6.37586 7.68434 6.43307 7.59285 6.47246C7.50135 6.51185 7.40292 6.53261 7.30331 6.53354C7.20371 6.53447 7.10491 6.51555 7.01269 6.47788C6.92048 6.44021 6.83669 6.38455 6.76622 6.31415L5.00922 4.55615L1.28922 8.27614C1.22 8.34774 1.13721 8.40484 1.04569 8.4441C0.95417 8.48337 0.855746 8.50401 0.756161 8.50483C0.656577 8.50565 0.557826 8.48662 0.465672 8.44887C0.373518 8.41112 0.289806 8.35539 0.21942 8.28493C0.149034 8.21448 0.0933837 8.13072 0.0557165 8.03853C0.0180493 7.94634 -0.00088054 7.84757 3.14519e-05 7.74799C0.000943444 7.6484 0.0216791 7.55 0.0610283 7.45851C0.100378 7.36703 0.157553 7.2843 0.229217 7.21515L4.47922 2.96515C4.61984 2.82469 4.81047 2.74581 5.00922 2.74581C5.20797 2.74581 5.39859 2.82469 5.53922 2.96515L7.29522 4.72015C8.37615 3.66624 9.55028 2.71234 10.8032 1.87015L9.34322 1.47215C9.15156 1.41975 8.98853 1.29344 8.88991 1.12095C8.79129 0.948464 8.76515 0.744892 8.81722 0.553146Z" fill="var(--fill-0, #6D7378)"/>
</svg>
