<svg preserveAspectRatio="none" width="100%" height="100%" overflow="visible" style="display: block;" viewBox="0 0 16 16" fill="none" xmlns="http://www.w3.org/2000/svg">
<g id="Icon">
<path id="Vector" d="M4 2C3.46957 2 2.96086 2.21071 2.58579 2.58579C2.21071 2.96086 2 3.46957 2 4V5.5C2 6.03043 2.21071 6.53914 2.58579 6.91421C2.96086 7.28929 3.46957 7.5 4 7.5H5.5C6.03043 7.5 6.53914 7.28929 6.91421 6.91421C7.28929 6.53914 7.5 6.03043 7.5 5.5V4C7.5 3.46957 7.28929 2.96086 6.91421 2.58579C6.53914 2.21071 6.03043 2 5.5 2H4ZM10.5 2C9.96957 2 9.46086 2.21071 9.08579 2.58579C8.71071 2.96086 8.5 3.46957 8.5 4V5.5C8.5 6.03043 8.71071 6.53914 9.08579 6.91421C9.46086 7.28929 9.96957 7.5 10.5 7.5H12C12.5304 7.5 13.0391 7.28929 13.4142 6.91421C13.7893 6.53914 14 6.03043 14 5.5V4C14 3.46957 13.7893 2.96086 13.4142 2.58579C13.0391 2.21071 12.5304 2 12 2H10.5ZM4 8.5C3.46957 8.5 2.96086 8.71071 2.58579 9.08579C2.21071 9.46086 2 9.96957 2 10.5V12C2 12.5304 2.21071 13.0391 2.58579 13.4142C2.96086 13.7893 3.46957 14 4 14H5.5C6.03043 14 6.53914 13.7893 6.91421 13.4142C7.28929 13.0391 7.5 12.5304 7.5 12V10.5C7.5 9.96957 7.28929 9.46086 6.91421 9.08579C6.53914 8.71071 6.03043 8.5 5.5 8.5H4ZM11.75 9C11.75 8.86739 11.6973 8.74022 11.6036 8.64645C11.5098 8.55268 11.3826 8.5 11.25 8.5C11.1174 8.5 10.9902 8.55268 10.8964 8.64645C10.8027 8.74022 10.75 8.86739 10.75 9V10.75H9C8.86739 10.75 8.74022 10.8027 8.64645 10.8964C8.55268 10.9902 8.5 11.1174 8.5 11.25C8.5 11.3826 8.55268 11.5098 8.64645 11.6036C8.74022 11.6973 8.86739 11.75 9 11.75H10.75V13.5C10.75 13.6326 10.8027 13.7598 10.8964 13.8536C10.9902 13.9473 11.1174 14 11.25 14C11.3826 14 11.5098 13.9473 11.6036 13.8536C11.6973 13.7598 11.75 13.6326 11.75 13.5V11.75H13.5C13.6326 11.75 13.7598 11.6973 13.8536 11.6036C13.9473 11.5098 14 11.3826 14 11.25C14 11.1174 13.9473 10.9902 13.8536 10.8964C13.7598 10.8027 13.6326 10.75 13.5 10.75H11.75V9Z" fill="var(--fill-0, #9FA3A7)"/>
</g>
</svg>
