<svg preserveAspectRatio="none" width="100%" height="100%" overflow="visible" style="display: block;" viewBox="0 0 16 16" fill="none" xmlns="http://www.w3.org/2000/svg">
<g clip-path="url(#clip0)">
<path d="M2.97306 2.80517C3.47039 3.20917 3.65706 3.1785 4.59172 3.11583L13.4017 2.58717C13.5884 2.58717 13.4331 2.4005 13.3711 2.36983L11.9071 1.31183C11.6271 1.0945 11.2531 0.845168 10.5371 0.907168L2.00706 1.52983C1.69639 1.5605 1.63372 1.7165 1.75772 1.8405L2.97306 2.80517ZM3.50172 4.8585V14.1278C3.50172 14.6258 3.75039 14.8125 4.31106 14.7812L13.9931 14.2212C14.5537 14.1905 14.6164 13.8478 14.6164 13.4432V4.23583C14.6164 3.83183 14.4611 3.61383 14.1177 3.6445L3.99972 4.23583C3.62639 4.26717 3.50172 4.4545 3.50172 4.8585ZM13.0597 5.35517C13.1217 5.63517 13.0597 5.91517 12.7797 5.94717L12.3131 6.0405V12.8832C11.9077 13.1012 11.5344 13.2258 11.2231 13.2258C10.7244 13.2258 10.5997 13.0698 10.2264 12.6038L7.17505 7.81317V12.4478L8.14039 12.6665C8.14039 12.6665 8.14039 13.2265 7.36172 13.2265L5.21372 13.3505C5.15172 13.2265 5.21372 12.9152 5.43172 12.8532L5.99172 12.6978V6.56917L5.21506 6.5065C5.15239 6.2265 5.30839 5.8225 5.74372 5.79117L8.04772 5.63584L11.2237 10.4885V6.19517L10.4137 6.1025C10.3517 5.75984 10.6004 5.51117 10.9117 5.4805L13.0597 5.35517ZM1.29106 0.689835L10.1644 0.0365013C11.2537 -0.056832 11.5344 0.00516796 12.2191 0.503168L15.0517 2.49383C15.5184 2.83583 15.6744 2.92917 15.6744 3.3025V14.2212C15.6744 14.9052 15.4257 15.3105 14.5544 15.3718L4.24906 15.9945C3.59572 16.0258 3.28372 15.9325 2.94106 15.4965L0.855056 12.7898C0.481722 12.2918 0.326389 11.9192 0.326389 11.4832V1.77783C0.326389 1.2185 0.575722 0.751168 1.29106 0.689835Z" fill="#2D2F30"/>
</g>
<defs>
<clipPath id="clip0">
<rect width="16" height="16" fill="white"/>
</clipPath>
</defs>
</svg>
