<svg preserveAspectRatio="none" width="100%" height="100%" overflow="visible" style="display: block;" viewBox="0 0 15.9999 16" fill="none" xmlns="http://www.w3.org/2000/svg">
<path d="M4.68672 0.0560112C3.83552 0.0961445 3.25425 0.232011 2.74605 0.431611C2.22019 0.636611 1.77439 0.911611 1.33085 1.35674C0.887388 1.80188 0.614188 2.24794 0.410721 2.77474C0.213788 3.28394 0.0803211 3.86574 0.0427211 4.71741C0.00512106 5.56908 -0.00321227 5.84288 0.000987726 8.01541C0.00512106 10.1878 0.0147211 10.4601 0.0559877 11.3136C0.0966544 12.1646 0.231988 12.7457 0.431654 13.2541C0.636988 13.78 0.911654 14.2256 1.35699 14.6693C1.80225 15.1129 2.24799 15.3855 2.77599 15.5893C3.28479 15.7859 3.86672 15.92 4.71825 15.9573C5.56979 15.9946 5.84385 16.0033 8.01572 15.9991C10.1876 15.9949 10.4611 15.9853 11.3143 15.9448C12.1676 15.9043 12.7456 15.768 13.2541 15.5693C13.7801 15.3635 14.226 15.0893 14.6693 14.6439C15.1127 14.1984 15.3857 13.752 15.589 13.2249C15.7861 12.7161 15.9201 12.1343 15.957 11.2833C15.9943 10.4294 16.0031 10.1568 15.999 7.98468C15.9948 5.81248 15.985 5.54014 15.9445 4.68701C15.9041 3.83388 15.7685 3.25454 15.569 2.74588C15.3634 2.21994 15.089 1.77468 14.6439 1.33068C14.1988 0.886678 13.752 0.613878 13.2252 0.411011C12.716 0.214011 12.1345 0.0798112 11.2829 0.0430112C10.4314 0.00621119 10.1573 -0.00332214 7.98465 0.000944527C5.81199 0.00507786 5.53999 0.0144112 4.68672 0.0560112ZM4.78019 14.5181C4.00019 14.4841 3.57665 14.3545 3.29439 14.2461C2.92065 14.1021 2.65439 13.928 2.37312 13.6494C2.09179 13.3709 1.91905 13.1037 1.77312 12.7307C1.66352 12.4485 1.53152 12.0254 1.49505 11.2454C1.45539 10.4024 1.44705 10.1493 1.44239 8.01341C1.43772 5.87761 1.44592 5.62474 1.48285 4.78141C1.51619 4.00208 1.64659 3.57808 1.75485 3.29594C1.89885 2.92174 2.07232 2.65594 2.35152 2.37488C2.63072 2.09374 2.89712 1.92061 3.27039 1.77468C3.55239 1.66461 3.97539 1.53374 4.75505 1.49661C5.59872 1.45661 5.85152 1.44861 7.98705 1.44394C10.1226 1.43928 10.3761 1.44728 11.2201 1.48448C11.9994 1.51834 12.4236 1.64748 12.7054 1.75648C13.0793 1.90048 13.3454 2.07341 13.6265 2.35314C13.9076 2.63274 14.0809 2.89821 14.2268 3.27228C14.337 3.55341 14.4679 3.97628 14.5047 4.75648C14.5449 5.60014 14.554 5.85315 14.5578 7.98848C14.5617 10.1238 14.5541 10.3774 14.5171 11.2205C14.4831 12.0005 14.3538 12.4241 14.2451 12.7067C14.1011 13.0803 13.9276 13.3467 13.6482 13.6277C13.3689 13.9087 13.1028 14.0817 12.7293 14.2277C12.4477 14.3376 12.0242 14.4688 11.2452 14.5059C10.4015 14.5456 10.1487 14.5539 8.01232 14.5586C5.87599 14.5633 5.62385 14.5546 4.78019 14.5181ZM11.302 3.72428C11.3023 3.91416 11.3589 4.09969 11.4647 4.2574C11.5705 4.4151 11.7206 4.53789 11.8962 4.61025C12.0717 4.68261 12.2648 4.70127 12.451 4.66389C12.6372 4.6265 12.8081 4.53475 12.9421 4.40022C13.0761 4.2657 13.1672 4.09446 13.2039 3.90815C13.2406 3.72184 13.2212 3.52883 13.1482 3.35355C13.0752 3.17826 12.9518 3.02856 12.7937 2.92338C12.6356 2.81821 12.4499 2.76228 12.26 2.76268C12.0054 2.76321 11.7615 2.8648 11.5819 3.04513C11.4022 3.22545 11.3016 3.46974 11.302 3.72428ZM3.89232 8.00801C3.89679 10.2768 5.73939 12.1118 8.00765 12.1075C10.2761 12.1032 12.1123 10.2608 12.1081 7.99201C12.1037 5.72321 10.2607 3.88768 7.99205 3.89214C5.72339 3.89661 3.88805 5.73948 3.89232 8.00801ZM5.33332 8.00514C5.33228 7.47773 5.48766 6.96186 5.77981 6.52275C6.07195 6.08364 6.48775 5.74103 6.97462 5.53823C7.46148 5.33543 7.99755 5.28156 8.51503 5.38343C9.03252 5.4853 9.50817 5.73833 9.88185 6.11052C10.2555 6.48272 10.5104 6.95736 10.6144 7.47444C10.7183 7.99151 10.6666 8.52779 10.4657 9.01546C10.2648 9.50313 9.92387 9.92028 9.48593 10.2142C9.04799 10.5081 8.53273 10.6655 8.00532 10.6665C7.65511 10.6673 7.30819 10.599 6.98437 10.4657C6.66054 10.3323 6.36616 10.1365 6.11804 9.88932C5.86991 9.64218 5.6729 9.34858 5.53826 9.02529C5.40361 8.702 5.33398 8.35535 5.33332 8.00514Z" fill="#2D2F30"/>
</svg>
